<svg xmlns="http://www.w3.org/2000/svg" class="icon icon-tabler icon-tabler-hand-move" width="64" height="64" viewBox="0 0 24 24" fill="none" stroke="currentColor" stroke-width="1.7" stroke-linecap="round" stroke-linejoin="round">
  <path d="M8 13v-7.5a1.5 1.5 0 0 1 3 0v7.5" />
  <path d="M11 5.5c0 -.828 .672 -1.5 1.5 -1.5s1.5 .672 1.5 1.5v7.5" />
  <path d="M14 6c0 -.828 .672 -1.5 1.5 -1.5s1.5 .672 1.5 1.5v7" />
  <path d="M17 7c0 -.828 .672 -1.5 1.5 -1.5s1.5 .672 1.5 1.5v6" />
  <path d="M7 11.5c0 -.828 -.672 -1.5 -1.5 -1.5s-1.5 .672 -1.5 1.5v2.5c0 3 1.5 6 6 6h5a4 4 0 0 0 4 -4v-1" />
  <path d="M10 21v-7" />
  <path d="M7 3h-2l-1 1l1 1h2" />
  <path d="M17 3h2l1 1l-1 1h-2" />
  <path d="M12 3l1 -1l-1 -1l-1 1l1 1z" />
</svg>
