<svg xmlns="http://www.w3.org/2000/svg" width="64" height="64" viewBox="0 0 24 24" fill="none" stroke="#3b82f6" stroke-width="2" stroke-linecap="round" stroke-linejoin="round">
  <!-- Photo frame -->
  <path d="M15 8h.01"/>
  <rect x="4" y="4" width="16" height="16" rx="3"/>
  <path d="M4 15l4-4a3 5 0 0 1 3 0l5 5"/>
  <path d="M14 14l1-1a3 5 0 0 1 3 0l2 2"/>
  <!-- Cog overlay -->
  <circle cx="18" cy="18" r="3" fill="#f8fafc" stroke="#475569"/>
  <path d="M18 15v1" stroke="#475569" stroke-width="1.5"/>
  <path d="M18 20v1" stroke="#475569" stroke-width="1.5"/>
  <path d="M15 18h1" stroke="#475569" stroke-width="1.5"/>
  <path d="M20 18h1" stroke="#475569" stroke-width="1.5"/>
  <path d="M15.8 15.8l.7.7" stroke="#475569" stroke-width="1.5"/>
  <path d="M19.5 19.5l.7.7" stroke="#475569" stroke-width="1.5"/>
  <path d="M15.8 20.2l.7-.7" stroke="#475569" stroke-width="1.5"/>
  <path d="M19.5 16.5l.7-.7" stroke="#475569" stroke-width="1.5"/>
</svg>
