<?xml version="1.0" encoding="UTF-8"?>
<svg width="512" height="512" viewBox="0 0 512 512" xmlns="http://www.w3.org/2000/svg">
  <!-- Background circle -->
  <circle cx="256" cy="256" r="240" fill="#2c3e50" opacity="0.95"/>

  <!-- Fingerprint pattern - stylized concentric arcs -->
  <g stroke="#3498db" stroke-width="12" fill="none" stroke-linecap="round">
    <!-- Inner curves -->
    <path d="M 256 180 Q 280 180, 290 200 Q 300 220, 300 250" opacity="0.9"/>
    <path d="M 256 190 Q 270 190, 278 205 Q 286 220, 286 245" opacity="0.85"/>

    <!-- Middle curves -->
    <path d="M 220 200 Q 240 195, 256 200 Q 272 205, 280 220 Q 288 235, 288 260" opacity="0.9"/>
    <path d="M 210 210 Q 230 205, 246 210 Q 262 215, 270 230 Q 278 245, 278 270" opacity="0.85"/>

    <!-- Outer curves left -->
    <path d="M 190 220 Q 210 215, 230 220 Q 250 225, 260 245 Q 270 265, 270 295" opacity="0.9"/>
    <path d="M 180 235 Q 200 230, 220 235 Q 240 240, 250 260 Q 260 280, 260 310" opacity="0.85"/>

    <!-- Outer curves right -->
    <path d="M 300 230 Q 310 245, 315 265 Q 320 285, 320 310" opacity="0.9"/>
    <path d="M 310 245 Q 318 260, 322 278 Q 326 296, 326 320" opacity="0.85"/>

    <!-- Bottom curves -->
    <path d="M 230 280 Q 245 300, 256 315 Q 267 330, 275 350" opacity="0.9"/>
    <path d="M 245 290 Q 255 305, 264 318 Q 273 331, 280 345" opacity="0.85"/>

    <!-- Additional detail curves -->
    <path d="M 200 250 Q 220 260, 235 280 Q 250 300, 255 330" opacity="0.8"/>
    <path d="M 290 260 Q 298 275, 303 292 Q 308 309, 310 330" opacity="0.8"/>

    <!-- Very outer curves for depth -->
    <path d="M 170 260 Q 190 265, 210 275 Q 230 285, 240 310 Q 250 335, 250 360" opacity="0.75"/>
    <path d="M 330 270 Q 338 290, 342 310 Q 346 330, 346 355" opacity="0.75"/>
  </g>

  <!-- Accent dots for detail -->
  <g fill="#3498db">
    <circle cx="256" cy="165" r="6" opacity="0.8"/>
    <circle cx="245" cy="172" r="5" opacity="0.7"/>
    <circle cx="267" cy="172" r="5" opacity="0.7"/>
    <circle cx="238" cy="185" r="4" opacity="0.6"/>
    <circle cx="274" cy="185" r="4" opacity="0.6"/>
  </g>

  <!-- "NIST" text badge (optional) -->
  <g font-family="Arial, sans-serif" font-weight="bold" fill="#ecf0f1">
    <text x="256" y="420" text-anchor="middle" font-size="42">myNIST</text>
  </g>
</svg>
